<svg xmlns="http://www.w3.org/2000/svg" viewBox="0 0 64 64">
  <defs>
    <linearGradient id="g" x1="10" y1="0" x2="54" y2="64" gradientUnits="userSpaceOnUse">
      <stop offset="0" stop-color="#38bdf8" stop-opacity="0.9" />
      <stop offset="1" stop-color="#22d3ee" stop-opacity="0.7" />
    </linearGradient>
  </defs>
  <path
    d="M32 4c10 7 20 6 20 6v20c0 16-11 26-20 30C23 56 12 46 12 30V10s10 1 20-6z"
    fill="url(#g)"
  />
  <path
    d="M32 16c6 0 10 4 10 10 0 4-2 7-5 9v6c0 3-2 5-5 5s-5-2-5-5v-6c-3-2-5-5-5-9 0-6 4-10 10-10z"
    fill="rgba(11,16,32,0.85)"
  />
</svg>
